HIERARCHY
ROOT Hips
{
	OFFSET 0.000000 35.069874 -0.029489
	CHANNELS 6 Xposition Yposition Zposition Xrotation Yrotation Zrotation 
	JOINT Spine
	{
		OFFSET 0.000000 6.876060 0.125662
		CHANNELS 3 Xrotation Yrotation Zrotation
		JOINT Spine1
		{
			OFFSET 0.000000 5.730046 0.104717
			CHANNELS 3 Xrotation Yrotation Zrotation
			JOINT Spine1_split
			{
				OFFSET 0.000000 5.730046 0.104717
				CHANNELS 3 Xrotation Yrotation Zrotation
				JOINT Spine2
				{
					OFFSET 0.000000 5.730046 0.104717
					CHANNELS 3 Xrotation Yrotation Zrotation
					JOINT Neck
					{
						OFFSET 0.000000 10.314075 0.188489
						CHANNELS 3 Xrotation Yrotation Zrotation
						JOINT Head
						{
							OFFSET 0.000000 7.643753 -2.377445
							CHANNELS 3 Xrotation Yrotation Zrotation
							JOINT HeadTop_End
							{
								OFFSET 0.000000 43.788605 -13.619637
								CHANNELS 3 Xrotation Yrotation Zrotation
								End Site
								{
									OFFSET 0.000000 0.000000 0.000000
								}
							}
						}
					}
					JOINT LeftShoulder
					{
						OFFSET 2.196093 4.412501 0.087498
						CHANNELS 3 Xrotation Yrotation Zrotation
						JOINT LeftShoulder_split
						{
							OFFSET 2.196093 4.412501 0.087498
							CHANNELS 3 Xrotation Yrotation Zrotation
							JOINT LeftArm
							{
								OFFSET 8.774866 -2.970879 -0.026997
								CHANNELS 3 Xrotation Yrotation Zrotation
								JOINT LeftForeArm
								{
									OFFSET 8.450586 -0.797432 -0.648343
									CHANNELS 3 Xrotation Yrotation Zrotation
									JOINT LeftHand
									{
										OFFSET 18.458662 0.962311 0.193148
										CHANNELS 3 Xrotation Yrotation Zrotation
										JOINT LeftHandThumb1
										{
											OFFSET 2.379990 -1.333382 2.680594
											CHANNELS 3 Xrotation Yrotation Zrotation
											JOINT LeftHandThumb2
											{
												OFFSET 1.903984 -1.066746 2.144473
												CHANNELS 3 Xrotation Yrotation Zrotation
												JOINT LeftHandThumb3
												{
													OFFSET 0.966393 -1.489639 2.964555
													CHANNELS 3 Xrotation Yrotation Zrotation
													JOINT LeftHandThumb4
													{
														OFFSET 1.205181 -0.823021 1.625701
														CHANNELS 3 Xrotation Yrotation Zrotation
														End Site
														{
															OFFSET 0.000000 0.000000 0.000000
														}
													}
												}
											}
										}
										JOINT LeftHandIndex1
										{
											OFFSET 7.830624 -0.787468 2.563931
											CHANNELS 3 Xrotation Yrotation Zrotation
											JOINT LeftHandIndex2
											{
												OFFSET 3.312897 -0.052605 1.515312
												CHANNELS 3 Xrotation Yrotation Zrotation
												JOINT LeftHandIndex3
												{
													OFFSET 3.460667 -0.207008 1.581951
													CHANNELS 3 Xrotation Yrotation Zrotation
													JOINT LeftHandIndex4
													{
														OFFSET 2.183182 0.110458 0.999585
														CHANNELS 3 Xrotation Yrotation Zrotation
														End Site
														{
															OFFSET 0.000000 0.000000 0.000000
														}
													}
												}
											}
										}
										JOINT LeftHandMiddle1
										{
											OFFSET 8.556145 -0.261200 0.258753
											CHANNELS 3 Xrotation Yrotation Zrotation
											JOINT LeftHandMiddle2
											{
												OFFSET 3.828903 -0.489014 -0.111505
												CHANNELS 3 Xrotation Yrotation Zrotation
												JOINT LeftHandMiddle3
												{
													OFFSET 3.696209 -0.166595 -0.107596
													CHANNELS 3 Xrotation Yrotation Zrotation
													JOINT LeftHandMiddle4
													{
														OFFSET 2.259281 0.534500 -0.065675
														CHANNELS 3 Xrotation Yrotation Zrotation
														End Site
														{
															OFFSET 0.000000 0.000000 0.000000
														}
													}
												}
											}
										}
										JOINT LeftHandRing1
										{
											OFFSET 8.509293 -0.556679 -3.044941
											CHANNELS 3 Xrotation Yrotation Zrotation
											JOINT LeftHandRing2
											{
												OFFSET 2.995171 -0.303261 -0.843591
												CHANNELS 3 Xrotation Yrotation Zrotation
												JOINT LeftHandRing3
												{
													OFFSET 2.968273 -0.101997 -0.834287
													CHANNELS 3 Xrotation Yrotation Zrotation
													JOINT LeftHandRing4
													{
														OFFSET 1.521358 -0.461468 -0.418735
														CHANNELS 3 Xrotation Yrotation Zrotation
														End Site
														{
															OFFSET 0.000000 0.000000 0.000000
														}
													}
												}
											}
										}
									}
								}
							}
						}
					}
					JOINT RightShoulder
					{
						OFFSET -2.196075 4.412512 0.070694
						CHANNELS 3 Xrotation Yrotation Zrotation
						JOINT RightShoulder_split
						{
							OFFSET -2.196075 4.412512 0.070694
							CHANNELS 3 Xrotation Yrotation Zrotation
							JOINT RightArm
							{
								OFFSET -8.774886 -2.970947 -0.094209
								CHANNELS 3 Xrotation Yrotation Zrotation
								JOINT RightForeArm
								{
									OFFSET -8.450586 -0.797386 -0.330665
									CHANNELS 3 Xrotation Yrotation Zrotation
									JOINT RightHand
									{
										OFFSET -18.458664 0.962341 0.025780
										CHANNELS 3 Xrotation Yrotation Zrotation
										JOINT RightHandThumb1
										{
											OFFSET -2.390282 -1.240040 2.604684
											CHANNELS 3 Xrotation Yrotation Zrotation
											JOINT RightHandThumb2
											{
												OFFSET -1.912228 -0.992111 2.083740
												CHANNELS 3 Xrotation Yrotation Zrotation
												JOINT RightHandThumb3
												{
													OFFSET -0.876358 -1.555370 2.930126
													CHANNELS 3 Xrotation Yrotation Zrotation
													JOINT RightHandThumb4
													{
														OFFSET -1.227077 -0.755932 1.835223
														CHANNELS 3 Xrotation Yrotation Zrotation
														End Site
														{
															OFFSET 0.000000 0.000000 0.000000
														}
													}
												}
											}
										}
										JOINT RightHandIndex1
										{
											OFFSET -8.716801 -0.633743 3.098187
											CHANNELS 3 Xrotation Yrotation Zrotation
											JOINT RightHandIndex2
											{
												OFFSET -3.319706 -0.240585 1.198087
												CHANNELS 3 Xrotation Yrotation Zrotation
												JOINT RightHandIndex3
												{
													OFFSET -3.153255 -0.154724 1.138827
													CHANNELS 3 Xrotation Yrotation Zrotation
													JOINT RightHandIndex4
													{
														OFFSET -1.818684 -0.003197 0.655154
														CHANNELS 3 Xrotation Yrotation Zrotation
														End Site
														{
															OFFSET 0.000000 0.000000 0.000000
														}
													}
												}
											}
										}
										JOINT RightHandMiddle1
										{
											OFFSET -8.158691 -0.528496 0.196552
											CHANNELS 3 Xrotation Yrotation Zrotation
											JOINT RightHandMiddle2
											{
												OFFSET -3.890194 -0.261169 -0.136423
												CHANNELS 3 Xrotation Yrotation Zrotation
												JOINT RightHandMiddle3
												{
													OFFSET -3.903057 -0.179909 -0.137173
													CHANNELS 3 Xrotation Yrotation Zrotation
													JOINT RightHandMiddle4
													{
														OFFSET -2.366261 0.198380 -0.083987
														CHANNELS 3 Xrotation Yrotation Zrotation
														End Site
														{
															OFFSET 0.000000 0.000000 0.000000
														}
													}
												}
											}
										}
										JOINT RightHandRing1
										{
											OFFSET -7.616104 -0.395126 -2.681268
											CHANNELS 3 Xrotation Yrotation Zrotation
											JOINT RightHandRing2
											{
												OFFSET -3.235790 -0.462120 -1.101476
												CHANNELS 3 Xrotation Yrotation Zrotation
												JOINT RightHandRing3
												{
													OFFSET -3.179264 -0.138618 -1.084847
													CHANNELS 3 Xrotation Yrotation Zrotation
													JOINT RightHandRing4
													{
														OFFSET -1.963291 -0.101624 -0.668250
														CHANNELS 3 Xrotation Yrotation Zrotation
														End Site
														{
															OFFSET 0.000000 0.000000 0.000000
														}
													}
												}
											}
										}
									}
								}
							}
						}
					}
				}
			}
		}
	}
	JOINT LeftUpLeg
	{
		OFFSET 10.205382 -3.823519 0.155145
		CHANNELS 3 Xrotation Yrotation Zrotation
		JOINT LeftLeg
		{
			OFFSET 0.283732 -12.998343 0.567794
			CHANNELS 3 Xrotation Yrotation Zrotation
			JOINT LeftFoot
			{
				OFFSET -1.058953 -10.688869 -2.184322
				CHANNELS 3 Xrotation Yrotation Zrotation
				JOINT LeftToeBase
				{
					OFFSET 0.108145 -7.191069 7.560211
					CHANNELS 3 Xrotation Yrotation Zrotation
					JOINT LeftToe_End
					{
						OFFSET 0.070226 0.081726 4.490266
						CHANNELS 3 Xrotation Yrotation Zrotation
						End Site
						{
							OFFSET 0.000000 0.000000 0.000000
						}
					}
				}
			}
		}
	}
	JOINT RightUpLeg
	{
		OFFSET -10.205383 -3.823513 0.005508
		CHANNELS 3 Xrotation Yrotation Zrotation
		JOINT RightLeg
		{
			OFFSET -0.283728 -12.998341 0.610627
			CHANNELS 3 Xrotation Yrotation Zrotation
			JOINT RightFoot
			{
				OFFSET 1.058956 -10.688892 -1.945833
				CHANNELS 3 Xrotation Yrotation Zrotation
				JOINT RightToeBase
				{
					OFFSET -0.108150 -7.191040 7.372945
					CHANNELS 3 Xrotation Yrotation Zrotation
					JOINT RightToe_End
					{
						OFFSET -0.070229 0.081738 4.479398
						CHANNELS 3 Xrotation Yrotation Zrotation
						End Site
						{
							OFFSET 0.000000 0.000000 0.000000
						}
					}
				}
			}
		}
	}
}
MOTION
Frames: 4
Frame Time: 0.016667
-0.417580 33.488258 -0.329136 0.289152 -22.261851 -2.506526 -5.192421 25.487963 10.726703 3.997430 3.936048 -7.691240 0.000000 0.000000 0.000000 4.476293 3.961406 -7.425025 3.040562 -3.094701 4.070852 6.875134 -11.753989 7.892891 0.000002 0.000000 0.000000 0.325185 0.835619 7.794438 0.000000 0.000000 0.000000 17.191514 -0.988099 -20.749867 27.924202 -101.397444 25.625925 19.906960 -46.275997 28.920974 8.041866 15.876997 2.179112 1.604144 37.312326 11.531053 -1.089110 -8.696769 -5.970393 -0.000002 0.000001 -0.000000 22.368234 20.558571 -51.355523 19.305528 0.122183 -40.210966 12.380837 0.675486 -26.382871 -0.000002 0.000004 -0.000000 1.732191 3.683673 -40.585380 2.438717 6.963247 -50.981010 -0.131983 4.013216 -38.893119 0.000006 0.000000 0.000002 -8.333035 -6.069589 -42.384838 -8.292519 12.425551 -47.272105 -1.305834 4.442290 -8.398846 -0.000000 0.000001 0.000000 0.758285 1.963750 2.874624 0.000000 0.000000 0.000000 -25.007233 13.160852 62.815733 14.623215 110.506935 -12.684034 36.018002 -15.067601 35.586201 9.271468 -13.333888 0.149270 0.638004 -47.670875 -13.771263 4.070198 5.717078 7.782429 0.000002 0.000001 0.000002 4.988179 -19.360849 10.531323 4.046745 -0.936107 10.749060 2.632365 -0.440250 7.180399 0.000000 0.000004 0.000004 -0.333696 1.804684 9.996501 -0.154460 -1.573643 11.315568 -0.368982 -0.803974 12.477331 -0.000000 -0.000000 -0.000003 -3.807490 18.083585 6.437627 -4.534117 -2.421299 14.545726 -1.400228 -1.035633 4.346895 -0.000000 -0.000002 -0.000001 -9.440320 0.785550 -4.380390 39.545931 9.844930 7.316134 -23.830735 8.345027 -4.183733 -11.031768 -0.000037 0.000007 0.000000 -0.000001 0.000000 -7.026662 -16.554391 7.278260 23.986885 10.684129 -1.662121 -14.855306 2.250416 -11.997328 -0.311418 -0.000007 0.000011 0.000000 0.000004 0.000000 
-0.503276 33.474480 -0.384651 0.975115 -23.656275 -1.315308 -5.529799 25.962142 10.874224 4.220425 3.950577 -8.490485 0.000000 0.000000 0.000000 4.749217 3.992885 -8.204206 2.987699 -2.928619 4.057884 6.667904 -11.048126 8.304521 0.000000 -0.000000 0.000000 0.327244 0.857197 7.428845 0.000000 0.000000 0.000000 13.633725 2.322390 -20.386040 32.496742 -99.977440 30.121168 19.765929 -46.460477 28.799793 8.072309 16.055789 2.098979 1.604144 37.312326 11.531052 -1.089111 -8.696767 -5.970392 -0.000002 -0.000003 -0.000002 22.455289 20.508183 -51.582152 19.397739 0.087118 -40.410251 12.428512 0.670177 -26.483669 -0.000002 0.000003 -0.000001 1.753734 3.711431 -40.802184 2.463877 6.989528 -51.203285 -0.126680 4.031440 -39.002976 -0.000001 -0.000002 -0.000000 -8.347493 -6.004392 -42.594149 -8.303140 12.494743 -47.480723 -1.326634 4.464329 -8.504146 -0.000001 0.000002 0.000000 0.652815 1.559999 2.159589 0.000000 0.000000 0.000000 -26.376920 17.812264 64.166950 14.679900 110.436386 -12.737192 36.341797 -13.837658 37.467290 9.178889 -11.857656 0.133775 0.502113 -45.608701 -13.791567 3.782375 6.707730 7.753609 0.000002 -0.000002 -0.000001 4.988180 -19.360846 10.531319 4.046746 -0.936114 10.749055 2.632370 -0.440252 7.180398 -0.000000 -0.000001 0.000001 -0.333695 1.804687 9.996502 -0.154461 -1.573642 11.315571 -0.368983 -0.803977 12.477331 0.000001 -0.000001 -0.000002 -3.807489 18.083583 6.437627 -4.534120 -2.421294 14.545731 -1.400223 -1.035636 4.346893 -0.000002 0.000001 0.000001 -6.590418 0.983649 -4.557093 34.314416 9.627478 4.808226 -24.390915 8.522742 -1.669242 -8.142307 -0.000021 0.000010 0.000000 0.000002 -0.000000 -9.965338 -17.330316 7.379063 28.180712 9.694938 -3.602546 -16.509962 4.377011 -13.995498 -2.556324 -0.000020 0.000004 -0.000000 0.000000 0.000000 
-0.582238 33.464329 -0.456813 1.693577 -24.595356 -0.183778 -5.911272 25.992264 11.171528 4.475672 3.888721 -9.274570 0.000000 0.000000 0.000000 5.047278 3.947504 -8.970708 2.899901 -2.740073 4.005314 6.479660 -10.247165 8.642148 0.000001 -0.000000 0.000000 0.367761 0.793795 6.833721 0.000000 0.000000 0.000000 9.430153 5.277235 -20.156793 38.875241 -98.574021 36.418664 19.744769 -46.653518 28.720611 8.098767 16.208138 2.030140 1.604142 37.312326 11.531052 -1.089111 -8.696769 -5.970390 0.000000 -0.000002 -0.000003 22.469710 20.499793 -51.619766 19.412327 0.081540 -40.441830 12.436058 0.669314 -26.499614 -0.000000 0.000001 -0.000000 1.757313 3.716054 -40.838196 2.467879 6.993681 -51.238508 -0.125827 4.034322 -39.020355 -0.000001 -0.000001 0.000001 -8.349885 -5.993539 -42.628918 -8.304818 12.505714 -47.513767 -1.329908 4.467816 -8.520810 -0.000001 -0.000002 0.000000 0.538048 0.995612 1.491251 0.000000 0.000000 0.000000 -27.502954 22.580870 64.907882 14.758630 110.339172 -12.811097 36.229089 -12.763166 38.564734 9.096860 -10.537964 0.122054 0.390307 -43.842434 -13.803025 3.535763 7.556329 7.732861 -0.000000 -0.000004 0.000003 4.988178 -19.360846 10.531324 4.046742 -0.936119 10.749056 2.632366 -0.440248 7.180400 0.000001 -0.000006 0.000003 -0.333695 1.804690 9.996504 -0.154465 -1.573644 11.315571 -0.368981 -0.803979 12.477329 0.000000 0.000005 -0.000002 -3.807492 18.083592 6.437626 -4.534122 -2.421296 14.545726 -1.400228 -1.035636 4.346898 0.000001 -0.000001 0.000001 -4.271444 1.079571 -4.830453 29.303506 9.580377 2.943545 -24.267042 8.337901 0.326750 -5.751473 -0.000024 0.000012 -0.000000 0.000000 0.000000 -16.016500 -17.427212 5.810601 35.274498 9.353082 -5.231257 -15.253074 5.098327 -11.831957 -6.547214 -0.000005 0.000010 0.000000 0.000000 0.000000 
-0.649562 33.411865 -0.532778 2.317262 -25.068606 0.920987 -6.088302 25.662487 11.483183 4.668290 3.770789 -10.047022 0.000000 0.000000 0.000000 5.276398 3.841538 -9.734970 2.826790 -2.552326 3.939366 6.357958 -9.443908 8.899216 0.000000 0.000000 -0.000000 0.452088 0.628426 6.016729 0.000000 0.000000 0.000000 4.708357 7.797825 -20.067567 47.612685 -97.309630 45.074853 19.853091 -46.851235 28.719726 8.119462 16.319175 1.976307 1.604140 37.312326 11.531052 -1.089109 -8.696767 -5.970391 -0.000002 -0.000001 -0.000001 22.389118 20.546534 -51.409847 19.326920 0.114091 -40.257186 12.391889 0.674258 -26.406244 0.000001 -0.000001 0.000001 1.737344 3.690337 -40.637320 2.444533 6.969346 -51.032537 -0.130761 4.017438 -38.918602 -0.000000 -0.000001 0.000002 -8.336527 -6.053975 -42.434985 -8.295018 12.441608 -47.320466 -1.310652 4.447394 -8.423254 0.000001 0.000001 0.000000 0.421118 0.305502 0.900169 0.000000 0.000000 0.000000 -28.000799 27.282231 64.818844 14.732532 110.371315 -12.786582 35.868154 -12.062692 38.723645 9.020472 -9.300060 0.112842 0.296229 -42.308760 -13.808906 3.321475 8.293229 7.717809 -0.000000 -0.000002 0.000001 4.988176 -19.360847 10.531322 4.046745 -0.936117 10.749055 2.632373 -0.440248 7.180399 0.000002 -0.000001 -0.000001 -0.333695 1.804686 9.996499 -0.154458 -1.573644 11.315568 -0.368984 -0.803980 12.477324 -0.000001 -0.000002 -0.000000 -3.807492 18.083585 6.437624 -4.534122 -2.421303 14.545731 -1.400228 -1.035636 4.346894 0.000002 -0.000001 -0.000004 -2.591857 0.977485 -5.250724 25.192094 9.594654 1.652966 -23.818080 8.056491 1.657560 -3.947131 -0.000017 0.000011 -0.000000 0.000001 -0.000000 -22.755643 -16.697827 3.826742 42.318957 9.065100 -6.476084 -12.063805 5.346686 -8.400195 -12.255455 -0.000017 0.000015 0.000000 0.000001 0.000000 
